PathFileType	4	(X/Y/Z)	Patient4_TMGait_0pt4_03_left_08.trc.trc
DataRate	CameraRate	NumFrames	NumMarkers	Units	OrigDataRate	OrigDataStartFrame	OrigNumFrames
72.916666666667	72.916666666667	4	33	mm	72.916666666667	53	       141
Frame#	Time	Sacral			L.Shoulder			Chest			R.Shoulder			Neck			R.ASIS			L.ASIS			R.Thigh.Superior			R.Thigh.Lateral			R.Thigh.Inferior			R.Patella			L.Thigh.Superior			L.Thigh.Lateral			L.Thigh.Inferior			L.Patella			L.Shank.Superior			L.Shank.Lateral			L.Shank.Inferior			R.Shank.Superior			R.Shank.Lateral			R.Shank.Inferior			R.Heel			R.Midfoot.Superior			R.Midfoot.Lateral			R.Toe			L.Heel			L.Midfoot.Lateral			L.Midfoot.Superior			L.Toe			L.Elbow			L.Wrist			R.Elbow			R.Wrist			
		X1	Y1	Z1	X2	Y2	Z2	X3	Y3	Z3	X4	Y4	Z4	X5	Y5	Z5	X6	Y6	Z6	X7	Y7	Z7	X8	Y8	Z8	X9	Y9	Z9	X10	Y10	Z10	X11	Y11	Z11	X12	Y12	Z12	X13	Y13	Z13	X14	Y14	Z14	X15	Y15	Z15	X16	Y16	Z16	X17	Y17	Z17	X18	Y18	Z18	X19	Y19	Z19	X20	Y20	Z20	X21	Y21	Z21	X22	Y22	Z22	X23	Y23	Z23	X24	Y24	Z24	X25	Y25	Z25	X26	Y26	Z26	X27	Y27	Z27	X28	Y28	Z28	X29	Y29	Z29	X30	Y30	Z30	X31	Y31	Z31	X32	Y32	Z32	X33	Y33	Z33	

53	10.753142857143	825.501476780362	1007.311277310817	435.547725903292	1004.993160066555	1429.689913993502	229.470219401922	1109.634439204603	1370.309035223670	392.961198240227	1026.445409141084	1450.766637333722	564.345653174774	994.768389523025	1499.054316047767	382.876210634723	1058.007646066474	952.431382646700	548.753921535557	1040.133528746887	965.581733552929	275.357410141639	1145.301577763460	784.574755194154	520.256201612328	1111.632346087714	663.754870623568	599.741382104116	1201.477173192379	626.792737726987	520.502109394900	1226.275912186219	517.761267488588	545.273316473383	1091.263850274806	752.929537918393	304.900435818212	1001.646773947242	635.576932544228	250.243024371158	1087.129369286716	560.139562755722	312.969740624560	1087.114994386362	491.948648189206	324.637202492628	1062.048926681464	419.296171309921	317.848676547318	973.793942100245	302.606482021311	269.968770678484	1026.927310555571	194.070438501631	343.811992312914	1156.850375367528	437.582669577754	556.574870924534	1041.888912053904	388.516614717183	622.377000590405	1036.523280025772	277.069522076293	576.998508572002	842.826241754953	199.849851044591	559.733807303870	1015.041846038478	149.163440470448	589.948756137160	908.294916488941	142.066449978458	628.985463859498	1087.845190936709	40.898586077819	612.324668359695	900.806722932177	38.445530235215	391.940608023595	972.422665420555	35.310009380210	308.815094950950	1055.922132036074	96.793917921030	333.923312176643	1184.152520384151	44.962156912263	301.475510596900	959.556944607461	1083.930113948408	104.655393011345	1107.565549331538	865.879005256003	92.116488334782	967.616024983762	1116.645707020913	705.998208877799	1022.164218121168	862.325480783191	733.695729920701	
54	10.766857142857	824.348839450310	1008.099288852816	432.627861041616	1007.109425081619	1430.241102708433	227.841430760838	1109.741886424736	1370.538094047076	392.436034400262	1024.921724150885	1451.189306066467	562.900850024347	994.800774228172	1499.527138951818	381.395267656092	1055.813139530024	953.362815628485	547.948240290881	1040.049150049892	965.673858603200	274.446780049748	1144.279226583981	787.068313102990	519.487275664602	1112.009698387632	666.218445130812	599.466068111813	1201.684525296788	629.763755072162	519.846202309321	1228.258252935112	522.096455653668	545.149096097188	1089.179784567198	752.337548813787	304.550906860295	998.718048882644	635.670735393963	249.229257668892	1083.209772015099	559.558113578210	312.349664774596	1082.560446651226	491.466830562366	324.023684475587	1057.362508764624	419.057590086285	317.258825291589	968.907654288932	302.502881652484	269.376226462779	1021.652322435275	193.923634035940	343.523822453407	1161.984047862748	440.094229487597	556.445774987177	1049.566076061986	385.673265348679	622.131196896664	1049.561461525911	274.083047287772	576.687213999681	859.868797840557	187.051762705926	559.322254133261	1034.196390555468	145.406597789087	589.251880503763	928.215299954004	132.780950413147	628.603400493015	1112.668001218435	41.622716750529	611.736523080960	895.256843849913	38.471926928933	391.912571417994	966.903213968357	35.291118431586	308.776047639819	1050.431174476865	96.744024342488	333.842584657973	1178.674293888765	44.836273103645	301.466515817629	963.251568023571	1085.104025760418	101.111139997190	1114.882513052186	869.461240379157	91.179367296969	962.005046427843	1118.198441334451	704.974757970563	1011.535345899566	863.405342697653	736.359682475236	
55	10.780571428571	823.219704072576	1008.799244558538	429.840619484764	1009.264838388612	1430.643840948540	226.348516319800	1109.890953579997	1370.635661630181	392.021040282736	1023.476749490956	1451.511695549608	561.559914634427	994.863806594759	1499.887509618187	380.018055208281	1053.631944773557	954.133117899105	547.286433598279	1039.928445943259	965.651573817334	273.690156266179	1142.895218855766	788.971237582641	518.953088736138	1111.660127371446	668.170884443333	599.408611160175	1200.923984350740	631.918842739103	519.323490491112	1229.043405679379	525.912797065702	545.125850687247	1087.093009548401	751.739445943430	304.444182810001	995.874905083727	635.743782146904	248.272126390378	1079.331044640895	558.975266996993	311.847347589467	1078.034574154112	490.969048893737	323.488552971586	1052.716393866604	418.788710466951	316.736806594936	964.062216204953	302.378159621423	268.850488030072	1016.401969218456	193.757868130915	343.279931454853	1166.409898196258	442.163122482404	556.508794718862	1057.224772000840	381.978508775175	622.254357087881	1063.132447109618	270.518188365363	576.719680437798	878.454378597740	172.968972786681	559.377223957661	1054.613123303897	141.336279097774	589.056051770738	949.758272141137	122.796039650949	628.757919088912	1138.996833900857	42.685626599434	611.738973385706	889.719638521972	38.487571586327	391.891648825015	961.382300265530	35.271237208073	308.745969019425	1044.937853484292	96.690715300913	333.786972054138	1173.193079807805	44.720042167262	301.461451507609	966.915193350853	1086.161348993169	97.721899935352	1121.964348409023	872.898975558323	90.479518218787	956.614251985340	1119.616639147033	703.965357681820	1001.850263927415	864.570176539069	738.481931909450	
56	10.794285714286	822.125495217635	1009.403931148015	427.205452306621	1011.419143696197	1430.890534524182	225.002872755225	1110.076547256056	1370.598987662434	391.710504590713	1022.125318426914	1451.726132790419	560.331847371057	994.953710011630	1500.131009363171	378.752633508566	1051.489786537581	954.721933278605	546.754782857087	1039.787379807648	965.526551467690	273.064853341289	1141.126490714024	790.212965300440	518.657423014002	1110.494215399241	669.551468289063	599.545421684661	1199.157948831231	633.201460451343	518.958809135954	1228.600373887600	529.147038629010	545.168387864429	1085.031683100172	751.132113795719	304.528746894914	993.122747434605	635.785722430420	247.380439051666	1075.514905769055	558.386940954871	311.456120434680	1073.564131403154	490.454733579779	323.038277153157	1048.134215989764	418.487079357282	316.287958874983	959.270739053187	302.235624944438	268.392337579629	1011.182670432273	193.571026038855	343.080426853418	1170.067367231224	443.815116961759	556.733870741816	1064.867634767435	377.618658133532	622.752527418764	1077.116775897487	266.647987647723	577.075635504417	898.550530323384	158.149419304537	559.925408706272	1076.093778826546	137.315305400004	589.319354273533	972.795667467916	112.602045335068	629.422739556047	1166.442970601785	44.376068182344	612.218313010034	884.198614941526	38.492823017445	391.875308966734	955.861315294916	35.251025144801	308.724619540692	1039.444556992039	96.633404413496	333.755774364105	1167.710208627422	44.606873815432	301.460535763666	970.577270717145	1087.078796394117	94.504101100315	1128.818242800767	876.148032526090	90.010597251289	951.454142756116	1120.878343367507	702.956080403674	993.130966815461	865.729905325784	740.066876506577	
